<svg xmlns="http://www.w3.org/2000/svg" viewBox="0 0 54.12 54.12"><path d="M38.72 42.46a16.84 16.84 0 0 0-23.26 0l11.61 11.61z" fill="#50ae48"/><path d="M25.97 16.9a1.92 1.92 0 1 1-2.2-1.58 1.91 1.91 0 0 1 2.2 1.58" fill="#00b4e6"/><path d="M25.97 24.98a1.92 1.92 0 1 1-2.2-1.59 1.91 1.91 0 0 1 2.2 1.59" fill="#00b4e6"/><path d="M32.21 31.82a1.92 1.92 0 1 1-2.2-1.59 1.92 1.92 0 0 1 2.2 1.59" fill="#00b4e6"/><path d="M34.13 21.15a1.92 1.92 0 1 1-2.2-1.59 1.92 1.92 0 0 1 2.2 1.59" fill="#00b4e6"/><path d="M17.39 9.67L27.06 0l9.76 9.76a16.45 16.45 0 0 1-19.43-.08z" fill="#ffec00"/><path d="M44.51 36.71L41 33.2l3.63-3.63h-7.26l-2.51-2.51 2.44-2.45h7.4l-3.7-3.7 3.51-3.51 9.61 9.61z" fill="#00b4e6"/><path d="M3.05 24.01a4.31 4.31 0 0 1 0 6.09l2.4 2.4a7.7 7.7 0 0 0 0-10.88z" fill="#00b4e6"/><path d="M7.33 19.77a10.32 10.32 0 0 1 0 14.58l2.4 2.4a13.7 13.7 0 0 0 0-19.37z" fill="#00b4e6"/><path d="M11.54 15.52a16.3 16.3 0 0 1 0 23.07l2.4 2.4a19.68 19.68 0 0 0 0-27.86z" fill="#00b4e6"/><path d="M0 27.06l1.52 1.52a2.1 2.1 0 0 0 0-3z" fill="#00b4e6"/></svg>
